<svg width="32" height="32" viewBox="0 0 32 32" fill="none" xmlns="http://www.w3.org/2000/svg">
<path d="M29.8331 23.5916H16.1245C30.002 5.38939 16.284 0.544089 8.71437 6.41461C30.0526 -10.8175 35.675 10.7194 29.8331 23.5916Z" fill="white"/>
<path d="M17.4212 16.9117C17.4212 20.7063 14.4353 23.7825 10.7521 23.7825C7.06888 23.7825 4.08303 20.7063 4.08303 16.9117C4.08303 13.1171 7.06888 10.0409 10.7521 10.0409C14.4353 10.0409 17.4212 13.1171 17.4212 16.9117Z" fill="white"/>
<path d="M1.31427 32H0L2.96561 26.0236H4.54614L5.58283 32H4.26856L3.56327 27.3893H3.51795L1.31427 32ZM1.61452 29.6509H4.71892L4.55464 30.6372H1.45023L1.61452 29.6509Z" fill="white"/>
<path d="M12.0961 26.0236L11.1331 32H10.0737L8.16181 28.2385H8.11649L7.5075 32H6.28104L7.24408 26.0236H8.32043L10.2239 29.7822H10.272L10.8753 26.0236H12.0961Z" fill="white"/>
<path d="M13.1463 32H11.832L14.7976 26.0236H16.3781L17.4148 32H16.1006L15.3953 27.3893H15.3499L13.1463 32ZM13.4465 29.6509H16.5509L16.3866 30.6372H13.2822L13.4465 29.6509Z" fill="white"/>
<path d="M17.9764 27.0654L18.1463 26.0236H22.9106L22.7406 27.0654H20.9646L20.1715 32H18.9592L19.7523 27.0654H17.9764Z" fill="white"/>
<path d="M22.7321 32L23.6952 26.0236H27.604L27.434 27.0654H24.7517L24.5251 28.4895H27.0063L26.8364 29.5312H24.3551L24.1285 30.9582H26.8222L26.6523 32H22.7321Z" fill="white"/>
<path d="M27.616 32L28.5791 26.0236H29.8055L29.0124 30.9582H31.4994L31.3294 32H27.616Z" fill="white"/>
</svg>
