<svg width="64" height="32" viewBox="0 0 64 32" fill="none" xmlns="http://www.w3.org/2000/svg">
<path d="M0 18.1753L3.08079 0.245139H15.5852L15.0415 3.37066H6.46059L5.7357 7.64308H13.6733L13.1296 10.7686H5.19203L4.46714 15.0498H13.0843L12.5406 18.1753H0Z" fill="white"/>
<path d="M18.8223 18.1753H14.6179L24.1049 0.245139H29.161L32.4774 18.1753H28.273L26.0168 4.34246H25.8718L18.8223 18.1753ZM19.7827 11.1276H29.7137L29.1882 14.0867H19.2572L19.7827 11.1276Z" fill="white"/>
<path d="M41.8489 11.9418H45.1834L46.6875 14.0255L48.0558 15.8815L50.7922 19.6461H47.1315L45.2559 17.1072L44.3498 15.6013L41.8489 11.9418ZM52.396 9.45536C52.0578 11.3698 51.4023 12.9953 50.4298 14.3319C49.4633 15.6685 48.2823 16.684 46.8869 17.3786C45.4975 18.0732 43.9994 18.4204 42.3925 18.4204C40.7072 18.4204 39.2544 18.0498 38.0341 17.3086C36.8199 16.5673 35.941 15.4963 35.3973 14.0955C34.8537 12.6889 34.751 10.9933 35.0893 9.00886C35.4155 7.0886 36.0648 5.46018 37.0374 4.12359C38.01 2.78116 39.197 1.75975 40.5984 1.05935C41.9999 0.353117 43.5071 0 45.1199 0C46.7932 0 48.237 0.373545 49.4512 1.12064C50.6714 1.86773 51.5503 2.94751 52.088 4.35997C52.6316 5.7666 52.7343 7.46507 52.396 9.45536ZM48.4907 9.00886C48.7021 7.77733 48.6931 6.74424 48.4635 5.9096C48.24 5.06912 47.8292 4.43293 47.2312 4.00102C46.6332 3.56911 45.8781 3.35315 44.9659 3.35315C43.9752 3.35315 43.0661 3.59245 42.2385 4.07106C41.417 4.54966 40.7223 5.24422 40.1544 6.15474C39.5927 7.05942 39.203 8.15963 38.9856 9.45536C38.7681 10.6927 38.7741 11.7258 39.0037 12.5546C39.2393 13.3834 39.6591 14.0109 40.2632 14.4369C40.8733 14.8572 41.6314 15.0673 42.5375 15.0673C43.5222 15.0673 44.4222 14.8338 45.2377 14.3669C46.0593 13.8941 46.751 13.2083 47.3127 12.3095C47.8745 11.4048 48.2672 10.3046 48.4907 9.00886Z" fill="white"/>
<path d="M63.3374 9.37031L48.7567 21.6973L45.1115 17.2948H48.7567L49.668 18.1753L63.3374 9.37031Z" fill="white"/>
<path d="M0.0803284 24.7969L0.626562 21.4155H2.84363L2.74723 22.005H1.22581L1.09729 22.8107H2.50464L2.40825 23.4001H1.00089L0.872367 24.2075H2.40021L2.30382 24.7969H0.0803284Z" fill="white"/>
<path d="M3.76299 23.3308L3.52521 24.7969H2.84242L3.2537 22.2609H3.90436L3.83367 22.7083H3.86099C3.93917 22.5597 4.04949 22.4425 4.19194 22.3566C4.33546 22.2708 4.49879 22.2278 4.68194 22.2278C4.85331 22.2278 4.9963 22.2664 5.1109 22.3434C5.22657 22.4205 5.30797 22.53 5.3551 22.672C5.40329 22.814 5.41133 22.984 5.37919 23.1822L5.11572 24.7969H4.43132L4.67391 23.3076C4.69854 23.1524 4.67927 23.0314 4.61607 22.9444C4.55395 22.8564 4.45381 22.8123 4.31565 22.8123C4.22354 22.8123 4.13892 22.8327 4.06181 22.8734C3.98469 22.9141 3.91989 22.9736 3.86741 23.0517C3.816 23.1288 3.78119 23.2218 3.76299 23.3308Z" fill="white"/>
<path d="M7.37576 22.2609L7.29061 22.7892H5.80293L5.88968 22.2609H7.37576ZM6.32345 21.6533H7.00785L6.62549 24.0176C6.61478 24.0826 6.61639 24.1332 6.63031 24.1695C6.64423 24.2047 6.66726 24.2295 6.69939 24.2438C6.73259 24.2581 6.77222 24.2653 6.81828 24.2653C6.85041 24.2653 6.88308 24.2625 6.91628 24.257C6.94948 24.2504 6.97465 24.2455 6.99179 24.2422L7.01749 24.7655C6.97893 24.7777 6.92699 24.7909 6.86166 24.8052C6.79739 24.8195 6.72135 24.8283 6.63352 24.8316C6.46644 24.8382 6.32506 24.8156 6.20939 24.7639C6.09372 24.7111 6.01071 24.6302 5.96037 24.5212C5.91003 24.4122 5.89932 24.2752 5.92824 24.1101L6.32345 21.6533Z" fill="white"/>
<path d="M7.4103 24.7969L7.82158 22.2609H8.50598L8.0947 24.7969H7.4103ZM8.23447 21.9307C8.13272 21.9307 8.04864 21.896 7.98224 21.8266C7.9169 21.7562 7.89013 21.6725 7.90191 21.5757C7.91369 21.4766 7.95975 21.393 8.04007 21.3247C8.1204 21.2554 8.21144 21.2207 8.31319 21.2207C8.41494 21.2207 8.49795 21.2554 8.56221 21.3247C8.62647 21.393 8.65325 21.4766 8.64254 21.5757C8.63183 21.6725 8.58631 21.7562 8.50598 21.8266C8.42672 21.896 8.33622 21.9307 8.23447 21.9307Z" fill="white"/>
<path d="M9.54904 24.8382C9.36054 24.8382 9.19828 24.7887 9.06225 24.6896C8.9273 24.5894 8.83091 24.4425 8.77307 24.2488C8.7163 24.0539 8.71095 23.8151 8.75701 23.5322C8.80413 23.2416 8.88874 23 9.01084 22.8074C9.13294 22.6136 9.27753 22.4689 9.44462 22.3731C9.6117 22.2763 9.78574 22.2278 9.96675 22.2278C10.1038 22.2278 10.2147 22.2521 10.2993 22.3005C10.385 22.3478 10.4509 22.4073 10.4969 22.4788C10.543 22.5493 10.5751 22.6186 10.5933 22.6868H10.6142L10.8214 21.4155H11.5042L10.958 24.7969H10.2832L10.3491 24.3908H10.3202C10.2774 24.4612 10.2206 24.5311 10.1499 24.6004C10.0803 24.6687 9.99567 24.7254 9.89606 24.7705C9.79753 24.8156 9.68185 24.8382 9.54904 24.8382ZM9.85108 24.2785C9.96032 24.2785 10.0589 24.2477 10.1467 24.186C10.2345 24.1233 10.3084 24.0358 10.3684 23.9235C10.4284 23.8112 10.4701 23.6797 10.4937 23.5289C10.5183 23.3781 10.5189 23.2471 10.4953 23.1359C10.4717 23.0248 10.4257 22.9389 10.3571 22.8784C10.2897 22.8178 10.2002 22.7876 10.0889 22.7876C9.97639 22.7876 9.87678 22.8189 9.79003 22.8817C9.70434 22.9444 9.63312 23.0314 9.57635 23.1425C9.52066 23.2537 9.48103 23.3825 9.45747 23.5289C9.43391 23.6764 9.4323 23.8068 9.45265 23.9202C9.473 24.0325 9.51638 24.1205 9.58278 24.1844C9.64919 24.2471 9.73862 24.2785 9.85108 24.2785Z" fill="white"/>
<path d="M12.2163 24.8448C12.06 24.8448 11.9245 24.8167 11.8099 24.7606C11.6964 24.7034 11.6128 24.6186 11.5593 24.5063C11.5057 24.3941 11.4923 24.2548 11.5191 24.0886C11.5427 23.9477 11.5871 23.8299 11.6524 23.7353C11.7188 23.6395 11.7997 23.5625 11.895 23.5041C11.9904 23.4458 12.0959 23.4012 12.2115 23.3704C12.3283 23.3396 12.4488 23.3187 12.573 23.3076C12.7165 23.2922 12.8333 23.2774 12.9232 23.2631C13.0143 23.2488 13.0823 23.2284 13.1273 23.202C13.1723 23.1745 13.1996 23.1337 13.2092 23.0798V23.0699C13.2253 22.9664 13.2065 22.8861 13.153 22.8288C13.1005 22.7705 13.0164 22.7413 12.9007 22.7413C12.7786 22.7413 12.6748 22.7688 12.5891 22.8239C12.5045 22.8789 12.4439 22.9488 12.4075 23.0336L11.7842 22.9807C11.8399 22.8266 11.924 22.6934 12.0364 22.5812C12.1499 22.4678 12.2865 22.3808 12.4461 22.3203C12.6057 22.2587 12.7845 22.2278 12.9827 22.2278C13.1198 22.2278 13.2478 22.2444 13.3667 22.2774C13.4866 22.3104 13.59 22.3616 13.6767 22.4309C13.7645 22.5003 13.8277 22.5894 13.8663 22.6984C13.9059 22.8063 13.914 22.9356 13.8904 23.0864L13.6125 24.7969H12.9634L13.0212 24.4452H13.002C12.9495 24.5245 12.8852 24.5944 12.8092 24.6549C12.7331 24.7144 12.6458 24.7611 12.5473 24.7953C12.4488 24.8283 12.3384 24.8448 12.2163 24.8448ZM12.4911 24.3594C12.5907 24.3594 12.6823 24.339 12.7658 24.2983C12.8504 24.2565 12.92 24.2003 12.9746 24.1299C13.0303 24.0594 13.0657 23.9796 13.0807 23.8905L13.1225 23.6214C13.101 23.6357 13.07 23.6483 13.0293 23.6593C12.9896 23.6703 12.9463 23.6808 12.8991 23.6907C12.8531 23.6995 12.8065 23.7078 12.7594 23.7155C12.7122 23.7221 12.6699 23.7287 12.6325 23.7353C12.55 23.7474 12.4761 23.7666 12.4107 23.7931C12.3454 23.8195 12.2924 23.8553 12.2517 23.9004C12.211 23.9444 12.1858 23.9994 12.1762 24.0655C12.1612 24.1613 12.1831 24.2345 12.2421 24.2851C12.302 24.3346 12.385 24.3594 12.4911 24.3594Z" fill="white"/>
<path d="M15.0495 24.8382C14.861 24.8382 14.6988 24.7887 14.5627 24.6896C14.4278 24.5894 14.3314 24.4425 14.2736 24.2488C14.2168 24.0539 14.2114 23.8151 14.2575 23.5322C14.3046 23.2416 14.3892 23 14.5113 22.8074C14.6334 22.6136 14.778 22.4689 14.9451 22.3731C15.1122 22.2763 15.2862 22.2278 15.4672 22.2278C15.6043 22.2278 15.7152 22.2521 15.7998 22.3005C15.8855 22.3478 15.9514 22.4073 15.9974 22.4788C16.0435 22.5493 16.0756 22.6186 16.0938 22.6868H16.1147L16.3219 21.4155H17.0047L16.4585 24.7969H15.7837L15.8496 24.3908H15.8207C15.7778 24.4612 15.7211 24.5311 15.6504 24.6004C15.5808 24.6687 15.4962 24.7254 15.3966 24.7705C15.298 24.8156 15.1823 24.8382 15.0495 24.8382ZM15.3516 24.2785C15.4608 24.2785 15.5594 24.2477 15.6472 24.186C15.735 24.1233 15.8089 24.0358 15.8689 23.9235C15.9289 23.8112 15.9706 23.6797 15.9942 23.5289C16.0188 23.3781 16.0194 23.2471 15.9958 23.1359C15.9722 23.0248 15.9262 22.9389 15.8576 22.8784C15.7902 22.8178 15.7007 22.7876 15.5893 22.7876C15.4769 22.7876 15.3773 22.8189 15.2905 22.8817C15.2048 22.9444 15.1336 23.0314 15.0768 23.1425C15.0212 23.2537 14.9815 23.3825 14.958 23.5289C14.9344 23.6764 14.9328 23.8068 14.9531 23.9202C14.9735 24.0325 15.0169 24.1205 15.0833 24.1844C15.1497 24.2471 15.2391 24.2785 15.3516 24.2785Z" fill="white"/>
<path d="M18.1378 24.8464C17.885 24.8464 17.6756 24.7936 17.5096 24.6879C17.3436 24.5812 17.2268 24.4304 17.1594 24.2356C17.093 24.0396 17.0817 23.8079 17.1256 23.5405C17.1685 23.2796 17.2547 23.0506 17.3843 22.8536C17.5149 22.6566 17.6788 22.503 17.8759 22.393C18.073 22.2829 18.2925 22.2278 18.5346 22.2278C18.6974 22.2278 18.8447 22.2548 18.9764 22.3087C19.1092 22.3616 19.2195 22.4419 19.3073 22.5498C19.3952 22.6566 19.4551 22.7903 19.4873 22.951C19.5205 23.1117 19.5199 23.2999 19.4857 23.5157L19.4551 23.7089H17.373L17.4389 23.273H18.8784C18.8945 23.1717 18.888 23.082 18.8591 23.0039C18.8302 22.9257 18.782 22.8646 18.7145 22.8206C18.647 22.7755 18.564 22.7529 18.4655 22.7529C18.3648 22.7529 18.2706 22.7782 18.1827 22.8288C18.0949 22.8795 18.021 22.9461 17.961 23.0286C17.9021 23.1101 17.8641 23.1987 17.847 23.2944L17.7715 23.727C17.75 23.8602 17.7543 23.9708 17.7843 24.0589C17.8154 24.1469 17.8689 24.213 17.945 24.257C18.021 24.2999 18.1174 24.3214 18.2342 24.3214C18.3102 24.3214 18.3814 24.3104 18.4478 24.2884C18.5153 24.2664 18.5753 24.2339 18.6278 24.191C18.6802 24.1469 18.7231 24.0925 18.7563 24.0275L19.3812 24.0704C19.3234 24.2267 19.2356 24.3632 19.1178 24.4799C19 24.5955 18.858 24.6857 18.692 24.7507C18.5271 24.8145 18.3423 24.8464 18.1378 24.8464Z" fill="white"/>
<path d="M21.3549 24.7969H20.6095L22.2915 21.4155H23.188L23.776 24.7969H23.0306L22.6305 22.1882H22.6048L21.3549 24.7969ZM21.5252 23.4678H23.286L23.1928 24.0259H21.432L21.5252 23.4678Z" fill="white"/>
<path d="M25.8549 22.2609L25.7698 22.7892H24.2467L24.3319 22.2609H25.8549ZM24.2676 24.7969L24.7094 22.0776C24.7383 21.8938 24.7973 21.7413 24.8862 21.6203C24.9761 21.4992 25.087 21.4084 25.2187 21.3478C25.3515 21.2873 25.495 21.257 25.6493 21.257C25.7542 21.257 25.849 21.2653 25.9336 21.2818C26.0193 21.2983 26.0814 21.3132 26.12 21.3264L25.916 21.8547C25.8903 21.8459 25.8587 21.8376 25.8212 21.8299C25.7837 21.8222 25.7441 21.8184 25.7023 21.8184C25.6027 21.8184 25.5293 21.8426 25.4822 21.891C25.4361 21.9384 25.4051 22.005 25.389 22.0908L24.9504 24.7969H24.2676Z" fill="white"/>
<path d="M26.8899 24.8464C26.6372 24.8464 26.4278 24.7936 26.2618 24.6879C26.0958 24.5812 25.979 24.4304 25.9115 24.2356C25.8451 24.0396 25.8339 23.8079 25.8778 23.5405C25.9206 23.2796 26.0069 23.0506 26.1365 22.8536C26.2671 22.6566 26.431 22.503 26.6281 22.393C26.8251 22.2829 27.0447 22.2278 27.2868 22.2278C27.4496 22.2278 27.5968 22.2548 27.7286 22.3087C27.8614 22.3616 27.9717 22.4419 28.0595 22.5498C28.1474 22.6566 28.2073 22.7903 28.2395 22.951C28.2727 23.1117 28.2721 23.2999 28.2379 23.5157L28.2073 23.7089H26.1252L26.1911 23.273H27.6306C27.6466 23.1717 27.6402 23.082 27.6113 23.0039C27.5824 22.9257 27.5342 22.8646 27.4667 22.8206C27.3992 22.7755 27.3162 22.7529 27.2177 22.7529C27.117 22.7529 27.0228 22.7782 26.9349 22.8288C26.8471 22.8795 26.7732 22.9461 26.7132 23.0286C26.6543 23.1101 26.6163 23.1987 26.5992 23.2944L26.5236 23.727C26.5022 23.8602 26.5065 23.9708 26.5365 24.0589C26.5676 24.1469 26.6211 24.213 26.6972 24.257C26.7732 24.2999 26.8696 24.3214 26.9863 24.3214C27.0624 24.3214 27.1336 24.3104 27.2 24.2884C27.2675 24.2664 27.3275 24.2339 27.3799 24.191C27.4324 24.1469 27.4753 24.0925 27.5085 24.0275L28.1334 24.0704C28.0756 24.2267 27.9878 24.3632 27.87 24.4799C27.7521 24.5955 27.6102 24.6857 27.4442 24.7507C27.2793 24.8145 27.0945 24.8464 26.8899 24.8464Z" fill="white"/>
<path d="M28.48 24.7969L28.8913 22.2609H29.5548L29.4825 22.7034H29.5083C29.5789 22.546 29.6737 22.4271 29.7926 22.3467C29.9126 22.2653 30.0416 22.2245 30.1798 22.2245C30.2141 22.2245 30.25 22.2267 30.2874 22.2311C30.326 22.2345 30.3603 22.24 30.3903 22.2477L30.2874 22.8734C30.2574 22.8624 30.2146 22.8536 30.1589 22.847C30.1043 22.8393 30.0523 22.8354 30.0031 22.8354C29.9035 22.8354 29.8108 22.858 29.7251 22.9031C29.6395 22.9472 29.5672 23.0088 29.5083 23.0881C29.4504 23.1673 29.4124 23.2587 29.3942 23.3621L29.1644 24.7969H28.48Z" fill="white"/>
<path d="M30.3312 24.7969L30.7425 22.2609H31.4269L31.0156 24.7969H30.3312ZM31.1554 21.9307C31.0536 21.9307 30.9696 21.896 30.9032 21.8266C30.8378 21.7562 30.811 21.6725 30.8228 21.5757C30.8346 21.4766 30.8807 21.393 30.961 21.3247C31.0413 21.2554 31.1324 21.2207 31.2341 21.2207C31.3359 21.2207 31.4189 21.2554 31.4831 21.3247C31.5474 21.393 31.5742 21.4766 31.5635 21.5757C31.5527 21.6725 31.5072 21.7562 31.4269 21.8266C31.3476 21.896 31.2571 21.9307 31.1554 21.9307Z" fill="white"/>
<path d="M32.47 24.8382C32.2815 24.8382 32.1192 24.7887 31.9832 24.6896C31.8482 24.5894 31.7518 24.4425 31.694 24.2488C31.6372 24.0539 31.6319 23.8151 31.6779 23.5322C31.725 23.2416 31.8097 23 31.9318 22.8074C32.0539 22.6136 32.1984 22.4689 32.3655 22.3731C32.5326 22.2763 32.7067 22.2278 32.8877 22.2278C33.0248 22.2278 33.1356 22.2521 33.2202 22.3005C33.3059 22.3478 33.3718 22.4073 33.4178 22.4788C33.4639 22.5493 33.496 22.6186 33.5142 22.6868H33.5351L33.7424 21.4155H34.4252L33.8789 24.7969H33.2042L33.27 24.3908H33.2411C33.1983 24.4612 33.1415 24.5311 33.0708 24.6004C33.0012 24.6687 32.9166 24.7254 32.817 24.7705C32.7184 24.8156 32.6028 24.8382 32.47 24.8382ZM32.772 24.2785C32.8812 24.2785 32.9798 24.2477 33.0676 24.186C33.1554 24.1233 33.2293 24.0358 33.2893 23.9235C33.3493 23.8112 33.3911 23.6797 33.4146 23.5289C33.4393 23.3781 33.4398 23.2471 33.4162 23.1359C33.3927 23.0248 33.3466 22.9389 33.2781 22.8784C33.2106 22.8178 33.1212 22.7876 33.0098 22.7876C32.8973 22.7876 32.7977 22.8189 32.7109 22.8817C32.6253 22.9444 32.554 23.0314 32.4973 23.1425C32.4416 23.2537 32.4019 23.3825 32.3784 23.5289C32.3548 23.6764 32.3532 23.8068 32.3736 23.9202C32.3939 24.0325 32.4373 24.1205 32.5037 24.1844C32.5701 24.2471 32.6595 24.2785 32.772 24.2785Z" fill="white"/>
<path d="M35.5582 24.8464C35.3065 24.8464 35.0982 24.7914 34.9332 24.6813C34.7683 24.5702 34.6521 24.4161 34.5846 24.219C34.5182 24.0209 34.5059 23.7903 34.5477 23.5272C34.5884 23.2675 34.673 23.0402 34.8015 22.8453C34.93 22.6505 35.0934 22.4992 35.2915 22.3913C35.4896 22.2823 35.713 22.2278 35.9614 22.2278C36.2121 22.2278 36.4198 22.2834 36.5848 22.3946C36.7497 22.5047 36.8659 22.6588 36.9334 22.8569C37.0009 23.055 37.0137 23.2856 36.972 23.5487C36.9302 23.8074 36.8445 24.0341 36.7149 24.2289C36.5853 24.4238 36.422 24.5757 36.2249 24.6846C36.0278 24.7925 35.8056 24.8464 35.5582 24.8464ZM35.6257 24.3016C35.7413 24.3016 35.8436 24.268 35.9325 24.2009C36.0225 24.1326 36.0969 24.0402 36.1558 23.9235C36.2158 23.8057 36.2576 23.6725 36.2811 23.5239C36.3047 23.3775 36.3063 23.2477 36.286 23.1343C36.2656 23.0198 36.2228 22.9296 36.1574 22.8635C36.0932 22.7975 36.0048 22.7644 35.8924 22.7644C35.7767 22.7644 35.6739 22.7986 35.5839 22.8668C35.4939 22.934 35.4195 23.0264 35.3606 23.1442C35.3017 23.262 35.2604 23.3957 35.2369 23.5454C35.2144 23.6907 35.2128 23.8206 35.2321 23.9351C35.2513 24.0484 35.2936 24.1381 35.359 24.2042C35.4243 24.2691 35.5132 24.3016 35.6257 24.3016Z" fill="white"/>
<path d="M37.2146 24.7969L37.6258 22.2609H38.2894L38.2171 22.7034H38.2428C38.3135 22.546 38.4082 22.4271 38.5271 22.3467C38.6471 22.2653 38.7761 22.2245 38.9143 22.2245C38.9486 22.2245 38.9845 22.2267 39.022 22.2311C39.0605 22.2345 39.0948 22.24 39.1248 22.2477L39.022 22.8734C38.992 22.8624 38.9491 22.8536 38.8934 22.847C38.8388 22.8393 38.7869 22.8354 38.7376 22.8354C38.638 22.8354 38.5453 22.858 38.4597 22.9031C38.374 22.9472 38.3017 23.0088 38.2428 23.0881C38.1849 23.1673 38.1469 23.2587 38.1287 23.3621L37.899 24.7969H37.2146Z" fill="white"/>
<path d="M39.6923 24.8448C39.5359 24.8448 39.4004 24.8167 39.2858 24.7606C39.1723 24.7034 39.0888 24.6186 39.0352 24.5063C38.9817 24.3941 38.9683 24.2548 38.995 24.0886C39.0186 23.9477 39.063 23.8299 39.1284 23.7353C39.1948 23.6395 39.2757 23.5625 39.371 23.5041C39.4663 23.4458 39.5718 23.4012 39.6875 23.3704C39.8042 23.3396 39.9247 23.3187 40.0489 23.3076C40.1925 23.2922 40.3092 23.2774 40.3992 23.2631C40.4902 23.2488 40.5582 23.2284 40.6032 23.202C40.6482 23.1745 40.6755 23.1337 40.6852 23.0798V23.0699C40.7012 22.9664 40.6825 22.8861 40.6289 22.8288C40.5764 22.7705 40.4924 22.7413 40.3767 22.7413C40.2546 22.7413 40.1507 22.7688 40.065 22.8239C39.9804 22.8789 39.9199 22.9488 39.8835 23.0336L39.2601 22.9807C39.3158 22.8266 39.3999 22.6934 39.5124 22.5812C39.6259 22.4678 39.7624 22.3808 39.922 22.3203C40.0816 22.2587 40.2605 22.2278 40.4586 22.2278C40.5957 22.2278 40.7237 22.2444 40.8426 22.2774C40.9625 22.3104 41.0659 22.3616 41.1527 22.4309C41.2405 22.5003 41.3037 22.5894 41.3422 22.6984C41.3819 22.8063 41.3899 22.9356 41.3663 23.0864L41.0884 24.7969H40.4393L40.4972 24.4452H40.4779C40.4254 24.5245 40.3612 24.5944 40.2851 24.6549C40.2091 24.7144 40.1218 24.7611 40.0232 24.7953C39.9247 24.8283 39.8144 24.8448 39.6923 24.8448ZM39.967 24.3594C40.0666 24.3594 40.1582 24.339 40.2417 24.2983C40.3263 24.2565 40.396 24.2003 40.4506 24.1299C40.5063 24.0594 40.5416 23.9796 40.5566 23.8905L40.5984 23.6214C40.577 23.6357 40.5459 23.6483 40.5052 23.6593C40.4656 23.6703 40.4222 23.6808 40.3751 23.6907C40.329 23.6995 40.2824 23.7078 40.2353 23.7155C40.1882 23.7221 40.1459 23.7287 40.1084 23.7353C40.0259 23.7474 39.952 23.7666 39.8867 23.7931C39.8214 23.8195 39.7683 23.8553 39.7276 23.9004C39.6869 23.9444 39.6618 23.9994 39.6521 24.0655C39.6371 24.1613 39.6591 24.2345 39.718 24.2851C39.778 24.3346 39.861 24.3594 39.967 24.3594Z" fill="white"/>
<path d="M0.973581 31.0374C0.785077 31.0374 0.622813 30.9879 0.48679 30.8888C0.351839 30.7887 0.255444 30.6417 0.197608 30.448C0.140843 30.2532 0.135487 30.0143 0.181542 29.7314C0.228668 29.4408 0.313281 29.1992 0.43538 29.0066C0.557479 28.8129 0.702071 28.6681 0.869154 28.5724C1.03624 28.4755 1.21028 28.4271 1.39129 28.4271C1.52838 28.4271 1.63924 28.4513 1.72385 28.4997C1.80953 28.5471 1.8754 28.6065 1.92146 28.678C1.96751 28.7485 1.99964 28.8178 2.01785 28.8861H2.03874L2.24598 27.6147H2.92877L2.38254 30.9961H1.70778L1.77365 30.59H1.74473C1.70189 30.6604 1.64513 30.7303 1.57444 30.7997C1.50482 30.8679 1.42021 30.9246 1.3206 30.9697C1.22206 31.0149 1.10639 31.0374 0.973581 31.0374ZM1.27562 30.4777C1.38486 30.4777 1.4834 30.4469 1.57122 30.3852C1.65905 30.3225 1.73295 30.235 1.79293 30.1227C1.85291 30.0105 1.89468 29.8789 1.91824 29.7281C1.94288 29.5773 1.94341 29.4463 1.91985 29.3352C1.89629 29.224 1.85023 29.1381 1.78168 29.0776C1.71421 29.0171 1.62478 28.9868 1.51339 28.9868C1.40093 28.9868 1.30132 29.0182 1.21457 29.0809C1.12888 29.1436 1.05766 29.2306 1.00089 29.3418C0.945198 29.4529 0.905569 29.5817 0.882006 29.7281C0.858443 29.8756 0.856837 30.0061 0.877187 30.1194C0.897536 30.2317 0.940914 30.3198 1.00732 30.3836C1.07372 30.4463 1.16316 30.4777 1.27562 30.4777Z" fill="white"/>
<path d="M3.64089 31.044C3.48451 31.044 3.34903 31.016 3.23442 30.9598C3.12089 30.9026 3.03735 30.8178 2.9838 30.7056C2.93025 30.5933 2.91686 30.454 2.94364 30.2878C2.9672 30.1469 3.01165 30.0292 3.07698 29.9345C3.14339 29.8387 3.22425 29.7617 3.31957 29.7034C3.4149 29.645 3.52039 29.6004 3.63607 29.5696C3.75281 29.5388 3.8733 29.5179 3.99754 29.5069C4.14106 29.4915 4.25781 29.4766 4.34778 29.4623C4.43882 29.448 4.50683 29.4276 4.55181 29.4012C4.59679 29.3737 4.62411 29.333 4.63375 29.279V29.2691C4.64981 29.1657 4.63107 29.0853 4.57752 29.0281C4.52503 28.9697 4.44096 28.9406 4.32528 28.9406C4.20319 28.9406 4.09929 28.9681 4.01361 29.0231C3.929 29.0781 3.86848 29.148 3.83207 29.2328L3.20872 29.18C3.26441 29.0259 3.34849 28.8927 3.46095 28.7804C3.57448 28.667 3.71104 28.5801 3.87063 28.5195C4.03021 28.4579 4.20908 28.4271 4.40722 28.4271C4.54431 28.4271 4.6723 28.4436 4.79119 28.4766C4.91115 28.5096 5.0145 28.5608 5.10126 28.6302C5.18908 28.6995 5.25228 28.7887 5.29083 28.8976C5.33046 29.0055 5.33849 29.1348 5.31493 29.2856L5.03699 30.9961H4.38794L4.44578 30.6445H4.4265C4.37402 30.7237 4.30975 30.7936 4.23371 30.8542C4.15767 30.9136 4.07038 30.9604 3.97184 30.9945C3.8733 31.0275 3.76299 31.044 3.64089 31.044ZM3.91561 30.5586C4.01522 30.5586 4.10679 30.5382 4.19033 30.4975C4.27495 30.4557 4.34456 30.3996 4.39919 30.3291C4.45488 30.2587 4.49023 30.1789 4.50522 30.0897L4.54699 29.8206C4.52557 29.8349 4.49451 29.8475 4.45381 29.8586C4.41418 29.8696 4.3708 29.88 4.32368 29.8899C4.27762 29.8987 4.23103 29.907 4.18391 29.9147C4.13678 29.9213 4.09447 29.9279 4.05699 29.9345C3.97452 29.9466 3.90062 29.9659 3.83528 29.9923C3.76995 30.0187 3.71693 30.0545 3.67623 30.0996C3.63553 30.1436 3.61036 30.1987 3.60072 30.2647C3.58573 30.3605 3.60768 30.4337 3.66659 30.4843C3.72657 30.5338 3.80958 30.5586 3.91561 30.5586Z" fill="white"/>
<path d="M8.04811 29.8206H8.63932L8.90601 30.2135L9.14861 30.5636L9.63379 31.2735H8.98474L8.65218 30.7947L8.49152 30.5107L8.04811 29.8206ZM9.91815 29.3517C9.85817 29.7127 9.74197 30.0193 9.56953 30.2713C9.39816 30.5234 9.18877 30.7149 8.94136 30.8459C8.69502 30.9769 8.4294 31.0424 8.1445 31.0424C7.84568 31.0424 7.58809 30.9725 7.37174 30.8327C7.15646 30.6929 7.00062 30.4909 6.90423 30.2267C6.80783 29.9615 6.78963 29.6417 6.84961 29.2675C6.90744 28.9053 7.02258 28.5982 7.19502 28.3462C7.36746 28.093 7.57792 27.9004 7.8264 27.7683C8.07488 27.6351 8.34211 27.5685 8.62808 27.5685C8.92476 27.5685 9.18074 27.639 9.39602 27.7799C9.61237 27.9207 9.76821 28.1244 9.86353 28.3908C9.95992 28.656 9.97813 28.9763 9.91815 29.3517ZM9.22572 29.2675C9.26321 29.0352 9.2616 28.8404 9.2209 28.683C9.18127 28.5245 9.10844 28.4045 9.00241 28.3231C8.89637 28.2416 8.76249 28.2009 8.60077 28.2009C8.42511 28.2009 8.26392 28.246 8.11719 28.3363C7.97153 28.4265 7.84836 28.5575 7.74768 28.7292C7.64807 28.8998 7.57899 29.1073 7.54043 29.3517C7.50187 29.585 7.50294 29.7799 7.54364 29.9362C7.58541 30.0925 7.65985 30.2108 7.76696 30.2911C7.87513 30.3704 8.00955 30.41 8.17021 30.41C8.34479 30.41 8.50437 30.366 8.64896 30.2779C8.79463 30.1888 8.91726 30.0594 9.01687 29.8899C9.11647 29.7193 9.18609 29.5118 9.22572 29.2675Z" fill="white"/>
<path d="M11.938 29.9163L12.1742 28.4601H12.8586L12.4473 30.9961H11.7902L11.8641 30.5355H11.8384C11.7624 30.6841 11.6515 30.8035 11.5058 30.8938C11.3602 30.984 11.1947 31.0292 11.0094 31.0292C10.8445 31.0292 10.7052 30.9906 10.5917 30.9136C10.4792 30.8365 10.3995 30.727 10.3523 30.585C10.3052 30.443 10.2972 30.273 10.3282 30.0748L10.5917 28.4601H11.2761L11.0351 29.9494C11.0126 30.0991 11.033 30.2174 11.0962 30.3043C11.1594 30.3913 11.2558 30.4348 11.3854 30.4348C11.4678 30.4348 11.5476 30.4155 11.6247 30.377C11.7029 30.3374 11.7704 30.279 11.8272 30.202C11.8839 30.1249 11.9209 30.0297 11.938 29.9163Z" fill="white"/>
<path d="M13.692 31.044C13.5356 31.044 13.4001 31.016 13.2855 30.9598C13.172 30.9026 13.0884 30.8178 13.0349 30.7056C12.9813 30.5933 12.968 30.454 12.9947 30.2878C13.0183 30.1469 13.0627 30.0292 13.1281 29.9345C13.1945 29.8387 13.2753 29.7617 13.3707 29.7034C13.466 29.645 13.5715 29.6004 13.6872 29.5696C13.8039 29.5388 13.9244 29.5179 14.0486 29.5069C14.1922 29.4915 14.3089 29.4766 14.3989 29.4623C14.4899 29.448 14.5579 29.4276 14.6029 29.4012C14.6479 29.3737 14.6752 29.333 14.6848 29.279V29.2691C14.7009 29.1657 14.6822 29.0853 14.6286 29.0281C14.5761 28.9697 14.4921 28.9406 14.3764 28.9406C14.2543 28.9406 14.1504 28.9681 14.0647 29.0231C13.9801 29.0781 13.9196 29.148 13.8832 29.2328L13.2598 29.18C13.3155 29.0259 13.3996 28.8927 13.512 28.7804C13.6256 28.667 13.7621 28.5801 13.9217 28.5195C14.0813 28.4579 14.2602 28.4271 14.4583 28.4271C14.5954 28.4271 14.7234 28.4436 14.8423 28.4766C14.9622 28.5096 15.0656 28.5608 15.1524 28.6302C15.2402 28.6995 15.3034 28.7887 15.3419 28.8976C15.3816 29.0055 15.3896 29.1348 15.366 29.2856L15.0881 30.9961H14.439L14.4969 30.6445H14.4776C14.4251 30.7237 14.3609 30.7936 14.2848 30.8542C14.2088 30.9136 14.1215 30.9604 14.0229 30.9945C13.9244 31.0275 13.8141 31.044 13.692 31.044ZM13.9667 30.5586C14.0663 30.5586 14.1579 30.5382 14.2414 30.4975C14.326 30.4557 14.3957 30.3996 14.4503 30.3291C14.506 30.2587 14.5413 30.1789 14.5563 30.0897L14.5981 29.8206C14.5767 29.8349 14.5456 29.8475 14.5049 29.8586C14.4653 29.8696 14.4219 29.88 14.3748 29.8899C14.3287 29.8987 14.2821 29.907 14.235 29.9147C14.1879 29.9213 14.1456 29.9279 14.1081 29.9345C14.0256 29.9466 13.9517 29.9659 13.8864 29.9923C13.821 30.0187 13.768 30.0545 13.7273 30.0996C13.6866 30.1436 13.6615 30.1987 13.6518 30.2647C13.6368 30.3605 13.6588 30.4337 13.7177 30.4843C13.7777 30.5338 13.8607 30.5586 13.9667 30.5586Z" fill="white"/>
<path d="M16.8497 27.6147L16.3035 30.9961H15.6191L16.1653 27.6147H16.8497Z" fill="white"/>
<path d="M16.8517 30.9961L17.263 28.4601H17.9474L17.5361 30.9961H16.8517ZM17.6759 28.1299C17.5741 28.1299 17.49 28.0952 17.4236 28.0259C17.3583 27.9554 17.3315 27.8718 17.3433 27.7749C17.3551 27.6758 17.4011 27.5922 17.4815 27.5239C17.5618 27.4546 17.6528 27.4199 17.7546 27.4199C17.8563 27.4199 17.9393 27.4546 18.0036 27.5239C18.0679 27.5922 18.0947 27.6758 18.0839 27.7749C18.0732 27.8718 18.0277 27.9554 17.9474 28.0259C17.8681 28.0952 17.7776 28.1299 17.6759 28.1299Z" fill="white"/>
<path d="M18.9904 31.0374C18.8019 31.0374 18.6397 30.9879 18.5037 30.8888C18.3687 30.7887 18.2723 30.6417 18.2145 30.448C18.1577 30.2532 18.1524 30.0143 18.1984 29.7314C18.2455 29.4408 18.3301 29.1992 18.4522 29.0066C18.5743 28.8129 18.7189 28.6681 18.886 28.5724C19.0531 28.4755 19.2271 28.4271 19.4082 28.4271C19.5452 28.4271 19.6561 28.4513 19.7407 28.4997C19.8264 28.5471 19.8923 28.6065 19.9383 28.678C19.9844 28.7485 20.0165 28.8178 20.0347 28.8861H20.0556L20.2628 27.6147H20.9456L20.3994 30.9961H19.7246L19.7905 30.59H19.7616C19.7188 30.6604 19.662 30.7303 19.5913 30.7997C19.5217 30.8679 19.4371 30.9246 19.3375 30.9697C19.2389 31.0149 19.1233 31.0374 18.9904 31.0374ZM19.2925 30.4777C19.4017 30.4777 19.5003 30.4469 19.5881 30.3852C19.6759 30.3225 19.7498 30.235 19.8098 30.1227C19.8698 30.0105 19.9115 29.8789 19.9351 29.7281C19.9597 29.5773 19.9603 29.4463 19.9367 29.3352C19.9132 29.224 19.8671 29.1381 19.7986 29.0776C19.7311 29.0171 19.6416 28.9868 19.5303 28.9868C19.4178 28.9868 19.3182 29.0182 19.2314 29.0809C19.1457 29.1436 19.0745 29.2306 19.0178 29.3418C18.9621 29.4529 18.9224 29.5817 18.8989 29.7281C18.8753 29.8756 18.8737 30.0061 18.8941 30.1194C18.9144 30.2317 18.9578 30.3198 19.0242 30.3836C19.0906 30.4463 19.18 30.4777 19.2925 30.4777Z" fill="white"/>
<path d="M21.6578 31.044C21.5014 31.044 21.3659 31.016 21.2513 30.9598C21.1378 30.9026 21.0542 30.8178 21.0007 30.7056C20.9471 30.5933 20.9337 30.454 20.9605 30.2878C20.9841 30.1469 21.0285 30.0292 21.0938 29.9345C21.1603 29.8387 21.2411 29.7617 21.3364 29.7034C21.4318 29.645 21.5373 29.6004 21.6529 29.5696C21.7697 29.5388 21.8902 29.5179 22.0144 29.5069C22.1579 29.4915 22.2747 29.4766 22.3646 29.4623C22.4557 29.448 22.5237 29.4276 22.5687 29.4012C22.6137 29.3737 22.641 29.333 22.6506 29.279V29.2691C22.6667 29.1657 22.6479 29.0853 22.5944 29.0281C22.5419 28.9697 22.4578 28.9406 22.3422 28.9406C22.2201 28.9406 22.1162 28.9681 22.0305 29.0231C21.9459 29.0781 21.8853 29.148 21.8489 29.2328L21.2256 29.18C21.2813 29.0259 21.3654 28.8927 21.4778 28.7804C21.5913 28.667 21.7279 28.5801 21.8875 28.5195C22.0471 28.4579 22.2259 28.4271 22.4241 28.4271C22.5612 28.4271 22.6892 28.4436 22.8081 28.4766C22.928 28.5096 23.0314 28.5608 23.1181 28.6302C23.2059 28.6995 23.2691 28.7887 23.3077 28.8976C23.3473 29.0055 23.3554 29.1348 23.3318 29.2856L23.0539 30.9961H22.4048L22.4626 30.6445H22.4434C22.3909 30.7237 22.3266 30.7936 22.2506 30.8542C22.1745 30.9136 22.0872 30.9604 21.9887 30.9945C21.8902 31.0275 21.7799 31.044 21.6578 31.044ZM21.9325 30.5586C22.0321 30.5586 22.1237 30.5382 22.2072 30.4975C22.2918 30.4557 22.3614 30.3996 22.4161 30.3291C22.4717 30.2587 22.5071 30.1789 22.5221 30.0897L22.5639 29.8206C22.5424 29.8349 22.5114 29.8475 22.4707 29.8586C22.431 29.8696 22.3877 29.88 22.3405 29.8899C22.2945 29.8987 22.2479 29.907 22.2008 29.9147C22.1536 29.9213 22.1113 29.9279 22.0739 29.9345C21.9914 29.9466 21.9175 29.9659 21.8521 29.9923C21.7868 30.0187 21.7338 30.0545 21.6931 30.0996C21.6524 30.1436 21.6272 30.1987 21.6176 30.2647C21.6026 30.3605 21.6245 30.4337 21.6835 30.4843C21.7434 30.5338 21.8264 30.5586 21.9325 30.5586Z" fill="white"/>
<path d="M24.4909 31.0374C24.3024 31.0374 24.1402 30.9879 24.0041 30.8888C23.8692 30.7887 23.7728 30.6417 23.715 30.448C23.6582 30.2532 23.6528 30.0143 23.6989 29.7314C23.746 29.4408 23.8306 29.1992 23.9527 29.0066C24.0748 28.8129 24.2194 28.6681 24.3865 28.5724C24.5536 28.4755 24.7276 28.4271 24.9086 28.4271C25.0457 28.4271 25.1566 28.4513 25.2412 28.4997C25.3269 28.5471 25.3928 28.6065 25.4388 28.678C25.4849 28.7485 25.517 28.8178 25.5352 28.8861H25.5561L25.7633 27.6147H26.4461L25.8999 30.9961H25.2251L25.291 30.59H25.2621C25.2192 30.6604 25.1625 30.7303 25.0918 30.7997C25.0222 30.8679 24.9376 30.9246 24.838 30.9697C24.7394 31.0149 24.6237 31.0374 24.4909 31.0374ZM24.793 30.4777C24.9022 30.4777 25.0008 30.4469 25.0886 30.3852C25.1764 30.3225 25.2503 30.235 25.3103 30.1227C25.3703 30.0105 25.412 29.8789 25.4356 29.7281C25.4602 29.5773 25.4608 29.4463 25.4372 29.3352C25.4136 29.224 25.3676 29.1381 25.299 29.0776C25.2316 29.0171 25.1421 28.9868 25.0307 28.9868C24.9183 28.9868 24.8187 29.0182 24.7319 29.0809C24.6462 29.1436 24.575 29.2306 24.5182 29.3418C24.4626 29.4529 24.4229 29.5817 24.3994 29.7281C24.3758 29.8756 24.3742 30.0061 24.3945 30.1194C24.4149 30.2317 24.4583 30.3198 24.5247 30.3836C24.5911 30.4463 24.6805 30.4777 24.793 30.4777Z" fill="white"/>
<path d="M27.5792 31.0457C27.3264 31.0457 27.117 30.9928 26.951 30.8872C26.785 30.7804 26.6682 30.6296 26.6008 30.4348C26.5344 30.2389 26.5231 30.0072 26.567 29.7397C26.6099 29.4788 26.6961 29.2499 26.8257 29.0528C26.9564 28.8558 27.1202 28.7023 27.3173 28.5922C27.5144 28.4821 27.7339 28.4271 27.976 28.4271C28.1388 28.4271 28.2861 28.454 28.4178 28.508C28.5506 28.5608 28.6609 28.6412 28.7487 28.749C28.8366 28.8558 28.8966 28.9895 28.9287 29.1502C28.9619 29.311 28.9613 29.4992 28.9271 29.7149L28.8965 29.9081H26.8144L26.8803 29.4722H28.3198C28.3359 29.3709 28.3294 29.2812 28.3005 29.2031C28.2716 29.1249 28.2234 29.0638 28.1559 29.0198C28.0884 28.9747 28.0054 28.9521 27.9069 28.9521C27.8062 28.9521 27.712 28.9774 27.6241 29.0281C27.5363 29.0787 27.4624 29.1453 27.4024 29.2278C27.3435 29.3093 27.3055 29.3979 27.2884 29.4937L27.2129 29.9263C27.1914 30.0594 27.1957 30.1701 27.2257 30.2581C27.2568 30.3462 27.3103 30.4122 27.3864 30.4562C27.4624 30.4992 27.5588 30.5206 27.6756 30.5206C27.7516 30.5206 27.8228 30.5096 27.8892 30.4876C27.9567 30.4656 28.0167 30.4331 28.0692 30.3902C28.1216 30.3462 28.1645 30.2917 28.1977 30.2267L28.8226 30.2697C28.7648 30.426 28.677 30.5625 28.5592 30.6791C28.4414 30.7947 28.2994 30.885 28.1334 30.9499C27.9685 31.0138 27.7837 31.0457 27.5792 31.0457Z" fill="white"/>
<path d="M31.1225 31.0374C30.9339 31.0374 30.7717 30.9879 30.6357 30.8888C30.5007 30.7887 30.4043 30.6417 30.3465 30.448C30.2897 30.2532 30.2844 30.0143 30.3304 29.7314C30.3775 29.4408 30.4622 29.1992 30.5843 29.0066C30.7063 28.8129 30.8509 28.6681 31.018 28.5724C31.1851 28.4755 31.3592 28.4271 31.5402 28.4271C31.6773 28.4271 31.7881 28.4513 31.8727 28.4997C31.9584 28.5471 32.0243 28.6065 32.0703 28.678C32.1164 28.7485 32.1485 28.8178 32.1667 28.8861H32.1876L32.3949 27.6147H33.0776L32.5314 30.9961H31.8567L31.9225 30.59H31.8936C31.8508 30.6604 31.794 30.7303 31.7233 30.7997C31.6537 30.8679 31.5691 30.9246 31.4695 30.9697C31.3709 31.0149 31.2553 31.0374 31.1225 31.0374ZM31.4245 30.4777C31.5337 30.4777 31.6323 30.4469 31.7201 30.3852C31.8079 30.3225 31.8818 30.235 31.9418 30.1227C32.0018 30.0105 32.0435 29.8789 32.0671 29.7281C32.0917 29.5773 32.0923 29.4463 32.0687 29.3352C32.0452 29.224 31.9991 29.1381 31.9306 29.0776C31.8631 29.0171 31.7736 28.9868 31.6623 28.9868C31.5498 28.9868 31.4502 29.0182 31.3634 29.0809C31.2778 29.1436 31.2065 29.2306 31.1498 29.3418C31.0941 29.4529 31.0544 29.5817 31.0309 29.7281C31.0073 29.8756 31.0057 30.0061 31.0261 30.1194C31.0464 30.2317 31.0898 30.3198 31.1562 30.3836C31.2226 30.4463 31.312 30.4777 31.4245 30.4777Z" fill="white"/>
<path d="M34.2107 31.0457C33.9579 31.0457 33.7485 30.9928 33.5825 30.8872C33.4165 30.7804 33.2998 30.6296 33.2323 30.4348C33.1659 30.2389 33.1546 30.0072 33.1985 29.7397C33.2414 29.4788 33.3276 29.2499 33.4572 29.0528C33.5879 28.8558 33.7517 28.7023 33.9488 28.5922C34.1459 28.4821 34.3654 28.4271 34.6075 28.4271C34.7703 28.4271 34.9176 28.454 35.0493 28.508C35.1821 28.5608 35.2924 28.6412 35.3803 28.749C35.4681 28.8558 35.5281 28.9895 35.5602 29.1502C35.5934 29.311 35.5929 29.4992 35.5586 29.7149L35.5281 29.9081H33.446L33.5118 29.4722H34.9513C34.9674 29.3709 34.9609 29.2812 34.932 29.2031C34.9031 29.1249 34.8549 29.0638 34.7874 29.0198C34.72 28.9747 34.637 28.9521 34.5384 28.9521C34.4377 28.9521 34.3435 28.9774 34.2557 29.0281C34.1678 29.0787 34.0939 29.1453 34.034 29.2278C33.975 29.3093 33.937 29.3979 33.9199 29.4937L33.8444 29.9263C33.823 30.0594 33.8272 30.1701 33.8572 30.2581C33.8883 30.3462 33.9418 30.4122 34.0179 30.4562C34.0939 30.4992 34.1903 30.5206 34.3071 30.5206C34.3831 30.5206 34.4543 30.5096 34.5207 30.4876C34.5882 30.4656 34.6482 30.4331 34.7007 30.3902C34.7532 30.3462 34.796 30.2917 34.8292 30.2267L35.4542 30.2697C35.3963 30.426 35.3085 30.5625 35.1907 30.6791C35.0729 30.7947 34.931 30.885 34.7649 30.9499C34.6 31.0138 34.4152 31.0457 34.2107 31.0457Z" fill="white"/>
<path d="M36.8607 30.9961L37.4069 27.6147H38.7243C38.9664 27.6147 39.1624 27.6516 39.3123 27.7254C39.4634 27.7991 39.5689 27.9015 39.6288 28.0325C39.6888 28.1624 39.7049 28.3121 39.677 28.4816C39.6545 28.6136 39.609 28.7292 39.5405 28.8283C39.473 28.9274 39.3895 29.0088 39.2898 29.0726C39.1902 29.1365 39.0821 29.1816 38.9653 29.208L38.9589 29.2411C39.0831 29.2466 39.1951 29.2829 39.2947 29.35C39.3943 29.4161 39.4687 29.5096 39.518 29.6307C39.5672 29.7518 39.5785 29.8954 39.5517 30.0616C39.5228 30.2411 39.4537 30.4012 39.3445 30.5421C39.2352 30.6819 39.0896 30.7925 38.9075 30.874C38.7265 30.9554 38.5128 30.9961 38.2665 30.9961H36.8607ZM37.6528 30.4117H38.2199C38.4127 30.4117 38.5599 30.3731 38.6617 30.2961C38.7634 30.219 38.8245 30.1172 38.8448 29.9906C38.8587 29.8971 38.8496 29.8145 38.8175 29.743C38.7865 29.6714 38.7334 29.6153 38.6585 29.5746C38.5846 29.5338 38.4908 29.5135 38.3773 29.5135H37.7957L37.6528 30.4117ZM37.8761 29.0297H38.3918C38.486 29.0297 38.5733 29.0127 38.6536 28.9785C38.735 28.9433 38.802 28.8938 38.8545 28.8299C38.908 28.765 38.9418 28.6885 38.9557 28.6004C38.975 28.4772 38.9482 28.3786 38.8753 28.3049C38.8036 28.23 38.6911 28.1926 38.538 28.1926H38.011L37.8761 29.0297Z" fill="white"/>
<path d="M40.5361 31.044C40.3798 31.044 40.2443 31.016 40.1297 30.9598C40.0161 30.9026 39.9326 30.8178 39.8791 30.7056C39.8255 30.5933 39.8121 30.454 39.8389 30.2878C39.8625 30.1469 39.9069 30.0292 39.9722 29.9345C40.0386 29.8387 40.1195 29.7617 40.2148 29.7034C40.3102 29.645 40.4156 29.6004 40.5313 29.5696C40.6481 29.5388 40.7686 29.5179 40.8928 29.5069C41.0363 29.4915 41.1531 29.4766 41.243 29.4623C41.3341 29.448 41.4021 29.4276 41.4471 29.4012C41.492 29.3737 41.5194 29.333 41.529 29.279V29.2691C41.5451 29.1657 41.5263 29.0853 41.4728 29.0281C41.4203 28.9697 41.3362 28.9406 41.2205 28.9406C41.0984 28.9406 40.9945 28.9681 40.9089 29.0231C40.8243 29.0781 40.7637 29.148 40.7273 29.2328L40.104 29.18C40.1597 29.0259 40.2437 28.8927 40.3562 28.7804C40.4697 28.667 40.6063 28.5801 40.7659 28.5195C40.9255 28.4579 41.1043 28.4271 41.3025 28.4271C41.4396 28.4271 41.5676 28.4436 41.6864 28.4766C41.8064 28.5096 41.9098 28.5608 41.9965 28.6302C42.0843 28.6995 42.1475 28.7887 42.1861 28.8976C42.2257 29.0055 42.2337 29.1348 42.2102 29.2856L41.9322 30.9961H41.2832L41.341 30.6445H41.3218C41.2693 30.7237 41.205 30.7936 41.129 30.8542C41.0529 30.9136 40.9656 30.9604 40.8671 30.9945C40.7686 31.0275 40.6582 31.044 40.5361 31.044ZM40.8109 30.5586C40.9105 30.5586 41.002 30.5382 41.0856 30.4975C41.1702 30.4557 41.2398 30.3996 41.2944 30.3291C41.3501 30.2587 41.3855 30.1789 41.4005 30.0897L41.4422 29.8206C41.4208 29.8349 41.3898 29.8475 41.3491 29.8586C41.3094 29.8696 41.2661 29.88 41.2189 29.8899C41.1729 29.8987 41.1263 29.907 41.0792 29.9147C41.032 29.9213 40.9897 29.9279 40.9522 29.9345C40.8698 29.9466 40.7959 29.9659 40.7305 29.9923C40.6652 30.0187 40.6122 30.0545 40.5715 30.0996C40.5308 30.1436 40.5056 30.1987 40.496 30.2647C40.481 30.3605 40.5029 30.4337 40.5618 30.4843C40.6218 30.5338 40.7048 30.5586 40.8109 30.5586Z" fill="white"/>
<path d="M43.3886 29.53L43.1508 30.9961H42.468L42.8793 28.4601H43.53L43.4593 28.9075H43.4866C43.5648 28.7589 43.6751 28.6417 43.8176 28.5559C43.9611 28.47 44.1244 28.4271 44.3076 28.4271C44.4789 28.4271 44.6219 28.4656 44.7365 28.5427C44.8522 28.6197 44.9336 28.7292 44.9807 28.8712C45.0289 29.0132 45.0369 29.1833 45.0048 29.3814L44.7413 30.9961H44.0569L44.2995 29.5069C44.3242 29.3517 44.3049 29.2306 44.2417 29.1436C44.1796 29.0556 44.0794 29.0116 43.9413 29.0116C43.8492 29.0116 43.7645 29.0319 43.6874 29.0726C43.6103 29.1134 43.5455 29.1728 43.493 29.251C43.4416 29.328 43.4068 29.421 43.3886 29.53Z" fill="white"/>
<path d="M46.1836 31.0374C45.9951 31.0374 45.8329 30.9879 45.6968 30.8888C45.5619 30.7887 45.4655 30.6417 45.4077 30.448C45.3509 30.2532 45.3455 30.0143 45.3916 29.7314C45.4387 29.4408 45.5233 29.1992 45.6454 29.0066C45.7675 28.8129 45.9121 28.6681 46.0792 28.5724C46.2463 28.4755 46.4203 28.4271 46.6013 28.4271C46.7384 28.4271 46.8493 28.4513 46.9339 28.4997C47.0196 28.5471 47.0855 28.6065 47.1315 28.678C47.1776 28.7485 47.2097 28.8178 47.2279 28.8861H47.2488L47.456 27.6147H48.1388L47.5926 30.9961H46.9178L46.9837 30.59H46.9548C46.9119 30.6604 46.8552 30.7303 46.7845 30.7997C46.7149 30.8679 46.6303 30.9246 46.5306 30.9697C46.4321 31.0149 46.3164 31.0374 46.1836 31.0374ZM46.4857 30.4777C46.5949 30.4777 46.6934 30.4469 46.7813 30.3852C46.8691 30.3225 46.943 30.235 47.003 30.1227C47.063 30.0105 47.1047 29.8789 47.1283 29.7281C47.1529 29.5773 47.1535 29.4463 47.1299 29.3352C47.1063 29.224 47.0603 29.1381 46.9917 29.0776C46.9243 29.0171 46.8348 28.9868 46.7234 28.9868C46.611 28.9868 46.5114 29.0182 46.4246 29.0809C46.3389 29.1436 46.2677 29.2306 46.2109 29.3418C46.1552 29.4529 46.1156 29.5817 46.0921 29.7281C46.0685 29.8756 46.0669 30.0061 46.0872 30.1194C46.1076 30.2317 46.151 30.3198 46.2174 30.3836C46.2838 30.4463 46.3732 30.4777 46.4857 30.4777Z" fill="white"/>
<path d="M48.8509 31.044C48.6946 31.044 48.5591 31.016 48.4445 30.9598C48.3309 30.9026 48.2474 30.8178 48.1939 30.7056C48.1403 30.5933 48.1269 30.454 48.1537 30.2878C48.1772 30.1469 48.2217 30.0292 48.287 29.9345C48.3534 29.8387 48.4343 29.7617 48.5296 29.7034C48.6249 29.645 48.7304 29.6004 48.8461 29.5696C48.9629 29.5388 49.0834 29.5179 49.2076 29.5069C49.3511 29.4915 49.4679 29.4766 49.5578 29.4623C49.6489 29.448 49.7169 29.4276 49.7619 29.4012C49.8068 29.3737 49.8342 29.333 49.8438 29.279V29.2691C49.8599 29.1657 49.8411 29.0853 49.7876 29.0281C49.7351 28.9697 49.651 28.9406 49.5353 28.9406C49.4132 28.9406 49.3093 28.9681 49.2237 29.0231C49.139 29.0781 49.0785 29.148 49.0421 29.2328L48.4188 29.18C48.4745 29.0259 48.5585 28.8927 48.671 28.7804C48.7845 28.667 48.9211 28.5801 49.0807 28.5195C49.2403 28.4579 49.4191 28.4271 49.6173 28.4271C49.7544 28.4271 49.8824 28.4436 50.0012 28.4766C50.1212 28.5096 50.2246 28.5608 50.3113 28.6302C50.3991 28.6995 50.4623 28.7887 50.5009 28.8976C50.5405 29.0055 50.5485 29.1348 50.525 29.2856L50.247 30.9961H49.598L49.6558 30.6445H49.6365C49.5841 30.7237 49.5198 30.7936 49.4438 30.8542C49.3677 30.9136 49.2804 30.9604 49.1819 30.9945C49.0834 31.0275 48.973 31.044 48.8509 31.044ZM49.1257 30.5586C49.2253 30.5586 49.3168 30.5382 49.4004 30.4975C49.485 30.4557 49.5546 30.3996 49.6092 30.3291C49.6649 30.2587 49.7003 30.1789 49.7153 30.0897L49.757 29.8206C49.7356 29.8349 49.7046 29.8475 49.6639 29.8586C49.6242 29.8696 49.5809 29.88 49.5337 29.8899C49.4877 29.8987 49.4411 29.907 49.394 29.9147C49.3468 29.9213 49.3045 29.9279 49.267 29.9345C49.1846 29.9466 49.1107 29.9659 49.0453 29.9923C48.98 30.0187 48.927 30.0545 48.8863 30.0996C48.8456 30.1436 48.8204 30.1987 48.8108 30.2647C48.7958 30.3605 48.8177 30.4337 48.8766 30.4843C48.9366 30.5338 49.0196 30.5586 49.1257 30.5586Z" fill="white"/>
<path d="M51.838 30.9961L52.3842 27.6147H53.0798L52.63 30.4067H54.0406L53.9442 30.9961H51.838Z" fill="white"/>
<path d="M55.0892 31.044C54.9329 31.044 54.7974 31.016 54.6828 30.9598C54.5693 30.9026 54.4857 30.8178 54.4322 30.7056C54.3786 30.5933 54.3652 30.454 54.392 30.2878C54.4156 30.1469 54.46 30.0292 54.5253 29.9345C54.5917 29.8387 54.6726 29.7617 54.7679 29.7034C54.8633 29.645 54.9688 29.6004 55.0844 29.5696C55.2012 29.5388 55.3217 29.5179 55.4459 29.5069C55.5894 29.4915 55.7062 29.4766 55.7961 29.4623C55.8872 29.448 55.9552 29.4276 56.0002 29.4012C56.0451 29.3737 56.0725 29.333 56.0821 29.279V29.2691C56.0982 29.1657 56.0794 29.0853 56.0259 29.0281C55.9734 28.9697 55.8893 28.9406 55.7736 28.9406C55.6515 28.9406 55.5477 28.9681 55.462 29.0231C55.3774 29.0781 55.3168 29.148 55.2804 29.2328L54.6571 29.18C54.7128 29.0259 54.7968 28.8927 54.9093 28.7804C55.0228 28.667 55.1594 28.5801 55.319 28.5195C55.4786 28.4579 55.6574 28.4271 55.8556 28.4271C55.9927 28.4271 56.1207 28.4436 56.2395 28.4766C56.3595 28.5096 56.4629 28.5608 56.5496 28.6302C56.6374 28.6995 56.7006 28.7887 56.7392 28.8976C56.7788 29.0055 56.7869 29.1348 56.7633 29.2856L56.4854 30.9961H55.8363L55.8941 30.6445H55.8749C55.8224 30.7237 55.7581 30.7936 55.6821 30.8542C55.606 30.9136 55.5187 30.9604 55.4202 30.9945C55.3217 31.0275 55.2113 31.044 55.0892 31.044ZM55.364 30.5586C55.4636 30.5586 55.5551 30.5382 55.6387 30.4975C55.7233 30.4557 55.7929 30.3996 55.8475 30.3291C55.9032 30.2587 55.9386 30.1789 55.9536 30.0897L55.9954 29.8206C55.9739 29.8349 55.9429 29.8475 55.9022 29.8586C55.8625 29.8696 55.8192 29.88 55.772 29.8899C55.726 29.8987 55.6794 29.907 55.6323 29.9147C55.5851 29.9213 55.5428 29.9279 55.5053 29.9345C55.4229 29.9466 55.349 29.9659 55.2836 29.9923C55.2183 30.0187 55.1653 30.0545 55.1246 30.0996C55.0839 30.1436 55.0587 30.1987 55.0491 30.2647C55.0341 30.3605 55.056 30.4337 55.1149 30.4843C55.1749 30.5338 55.2579 30.5586 55.364 30.5586Z" fill="white"/>
<path d="M57.0163 30.9961L57.4276 28.4601H58.0911L58.0188 28.9026H58.0445C58.1152 28.7452 58.21 28.6263 58.3289 28.546C58.4488 28.4645 58.5779 28.4238 58.7161 28.4238C58.7503 28.4238 58.7862 28.426 58.8237 28.4304C58.8623 28.4337 58.8965 28.4392 58.9265 28.4469L58.8237 29.0726C58.7937 29.0616 58.7509 29.0528 58.6952 29.0462C58.6406 29.0385 58.5886 29.0347 58.5393 29.0347C58.4397 29.0347 58.3471 29.0572 58.2614 29.1024C58.1757 29.1464 58.1034 29.208 58.0445 29.2873C57.9867 29.3665 57.9487 29.4579 57.9305 29.5614L57.7007 30.9961H57.0163Z" fill="white"/>
<path d="M59.7101 32C59.4874 32 59.3015 31.9686 59.1527 31.9059C59.0049 31.8442 58.8924 31.76 58.8153 31.6533C58.7392 31.5465 58.6975 31.4265 58.69 31.2933L59.339 31.2058C59.3508 31.2576 59.3733 31.3054 59.4065 31.3495C59.4408 31.3935 59.4895 31.4287 59.5527 31.4551C59.617 31.4816 59.7 31.4948 59.8017 31.4948C59.9506 31.4948 60.0802 31.4573 60.1905 31.3825C60.3008 31.3088 60.3688 31.1849 60.3945 31.011L60.4684 30.5471H60.4395C60.3988 30.6175 60.3431 30.6841 60.2724 30.7468C60.2028 30.8096 60.1177 30.8608 60.017 30.9004C59.9174 30.94 59.8022 30.9598 59.6716 30.9598C59.4852 30.9598 59.3235 30.9158 59.1864 30.8277C59.0504 30.7386 58.9518 30.6026 58.8908 30.4199C58.8308 30.2361 58.8233 30.0038 58.8683 29.7232C58.9154 29.4359 59 29.1959 59.1221 29.0033C59.2442 28.8107 59.3888 28.6665 59.5559 28.5707C59.723 28.475 59.897 28.4271 60.078 28.4271C60.2162 28.4271 60.3276 28.4513 60.4122 28.4997C60.4979 28.5471 60.5638 28.6065 60.6098 28.678C60.6559 28.7485 60.6885 28.8178 60.7078 28.8861H60.7351L60.8026 28.4601H61.4822L61.0677 31.0209C61.0345 31.2378 60.9547 31.4183 60.8283 31.5625C60.703 31.7078 60.5439 31.8167 60.3512 31.8894C60.1584 31.9631 59.9447 32 59.7101 32ZM59.9672 30.4315C60.0764 30.4315 60.1744 30.4034 60.2612 30.3473C60.349 30.29 60.4224 30.2086 60.4813 30.1029C60.5402 29.9961 60.5814 29.8685 60.605 29.7199C60.6286 29.5713 60.628 29.4425 60.6034 29.3335C60.5798 29.2234 60.5338 29.1381 60.4652 29.0776C60.3977 29.0171 60.3089 28.9868 60.1985 28.9868C60.085 28.9868 59.9854 29.0182 59.8997 29.0809C59.814 29.1425 59.7428 29.2284 59.686 29.3385C59.6303 29.4485 59.5913 29.5757 59.5688 29.7199C59.5452 29.8663 59.5441 29.9928 59.5655 30.0996C59.588 30.2053 59.6325 30.2873 59.6989 30.3456C59.7653 30.4029 59.8547 30.4315 59.9672 30.4315Z" fill="white"/>
<path d="M62.3128 31.044C62.1564 31.044 62.0209 31.016 61.9063 30.9598C61.7928 30.9026 61.7092 30.8178 61.6557 30.7056C61.6021 30.5933 61.5887 30.454 61.6155 30.2878C61.6391 30.1469 61.6835 30.0292 61.7489 29.9345C61.8153 29.8387 61.8961 29.7617 61.9915 29.7034C62.0868 29.645 62.1923 29.6004 62.308 29.5696C62.4247 29.5388 62.5452 29.5179 62.6694 29.5069C62.813 29.4915 62.9297 29.4766 63.0197 29.4623C63.1107 29.448 63.1787 29.4276 63.2237 29.4012C63.2687 29.3737 63.296 29.333 63.3056 29.279V29.2691C63.3217 29.1657 63.303 29.0853 63.2494 29.0281C63.1969 28.9697 63.1128 28.9406 62.9972 28.9406C62.8751 28.9406 62.7712 28.9681 62.6855 29.0231C62.6009 29.0781 62.5404 29.148 62.504 29.2328L61.8806 29.18C61.9363 29.0259 62.0204 28.8927 62.1328 28.7804C62.2464 28.667 62.3829 28.5801 62.5425 28.5195C62.7021 28.4579 62.881 28.4271 63.0791 28.4271C63.2162 28.4271 63.3442 28.4436 63.4631 28.4766C63.583 28.5096 63.6864 28.5608 63.7732 28.6302C63.861 28.6995 63.9242 28.7887 63.9627 28.8976C64.0024 29.0055 64.0104 29.1348 63.9868 29.2856L63.7089 30.9961H63.0598L63.1177 30.6445H63.0984C63.0459 30.7237 62.9816 30.7936 62.9056 30.8542C62.8296 30.9136 62.7423 30.9604 62.6437 30.9945C62.5452 31.0275 62.4349 31.044 62.3128 31.044ZM62.5875 30.5586C62.6871 30.5586 62.7787 30.5382 62.8622 30.4975C62.9468 30.4557 63.0165 30.3996 63.0711 30.3291C63.1268 30.2587 63.1621 30.1789 63.1771 30.0897L63.2189 29.8206C63.1975 29.8349 63.1664 29.8475 63.1257 29.8586C63.0861 29.8696 63.0427 29.88 62.9956 29.8899C62.9495 29.8987 62.9029 29.907 62.8558 29.9147C62.8087 29.9213 62.7664 29.9279 62.7289 29.9345C62.6464 29.9466 62.5725 29.9659 62.5072 29.9923C62.4418 30.0187 62.3888 30.0545 62.3481 30.0996C62.3074 30.1436 62.2823 30.1987 62.2726 30.2647C62.2576 30.3605 62.2796 30.4337 62.3385 30.4843C62.3985 30.5338 62.4815 30.5586 62.5875 30.5586Z" fill="white"/>
</svg>
